<?xml version="1.0" encoding="UTF-8" standalone="no"?>
<!DOCTYPE svg PUBLIC "-//W3C//DTD SVG 1.1//EN"
"http://www.w3.org/Graphics/SVG/1.1/DTD/svg11.dtd">


<!-- Page 1 -->
<svg x="0" y="0" width="1466" height="412" viewBox="0 0 1466 412" version="1.1" xmlns="http://www.w3.org/2000/svg" xmlns:xlink="http://www.w3.org/1999/xlink"
style="display: block;margin-left: auto;margin-right: auto;">
<defs>
<clipPath id="c0_1"><path d="M0.5,412.5l0,-412l1466,0l0,412Z" /></clipPath>
<clipPath id="c1_1"><path d="M244.5,412.5l0,-328l1222,0l0,328Z" /></clipPath>
<clipPath id="c2_1"><path d="M464.5,400.5l0,-118l941,0l0,118Z" /></clipPath>

<style type="text/css"><![CDATA[

.g1_1{
fill: #FFFFFF;
}
.g2_1{
fill: #FFFFFF;
fill-opacity: 0;
}

.s3_1{
font-size: 54.90px;
font-family: Arial-BoldMT_f;
fill: TRANSPARENT;
}
.s2_1{
font-size: 134.44px;
font-family: Arial-BoldMT_b;
fill: TRANSPARENT;
}
.s1_1{
font-size: 165.31px;
font-family: Arial-BoldMT_9;
fill: TRANSPARENT;
}

]]></style>

</defs>
<path d="M0,0
L0,412
L1466,412
L1466,0 Z " 
fill="#FFFFFF" stroke="none" />
<g clip-path="url(#c0_1)">
<path d="M0,0L1466,0l0,412L0,412Z" class="g1_1" />
</g>
<g clip-path="url(#c1_1)">
<path d="M244,84l1273,0l0,348L244,432Z" class="g2_1" />
<g fill="#B42B17" >
<use xlink:href="#f0_2" transform="matrix(143.4,0,0,108.2,376.1,294.3)" />
<use xlink:href="#f0_7" transform="matrix(143.4,0,0,108.2,492,294.3)" />
<use xlink:href="#f0_6" transform="matrix(143.4,0,0,108.2,557.6,294.3)" />
<use xlink:href="#f0_5" transform="matrix(143.4,0,0,108.2,673.5,294.3)" />
<use xlink:href="#f0_6" transform="matrix(143.4,0,0,108.2,789.3,294.3)" />
<use xlink:href="#f0_4" transform="matrix(143.4,0,0,108.2,905.2,294.3)" />
<use xlink:href="#f0_3" transform="matrix(143.4,0,0,108.2,1080.4,294.3)" />
<use xlink:href="#f0_8" transform="matrix(143.4,0,0,108.2,1122.6,294.3)" />
<use xlink:href="#f0_9" transform="matrix(143.4,0,0,108.2,1226,294.3)" />
<use xlink:href="#f0_8" transform="matrix(143.4,0,0,108.2,1280.7,294.3)" />
</g>
</g>
<g clip-path="url(#c0_1)">
<g fill="#B42B17" >
<use xlink:href="#f1_6" transform="matrix(88,0,0,88,684.5,183.6)" />
</g>
</g>
<text 
transform="matrix(1.33, 0, 0, 1, 376, 294)"
dx="0,-13.6,-14.8,-13.6,-13.6,-13.6,-14.8,-14.1,-14,-13.8" 
class="s1_1"
>gronomists</text>

<g clip-path="url(#c0_1)">
<g fill="#B42B17" >
<use xlink:href="#f1_4" transform="matrix(88,0,0,88,783.8,183.6)" />
<use xlink:href="#f1_3" transform="matrix(88,0,0,88,887.7,183.6)" />
<use xlink:href="#f1_5" transform="matrix(88,0,0,88,957.9,183.6)" />
<use xlink:href="#f1_4" transform="matrix(88,0,0,88,1005.3,183.6)" />
</g>
</g>
<text 
x="684" 
y="183" 
dx="0,-5.3,-4.5,-3.8,-4.5,-4.9" 
class="s2_1"
>we are</text>

<image x="47" y="58" width="349" height="271" xlink:href="1/img/1.png" />
<path d="M464,282l941,0l0,118l-941,0Z" class="g2_1" />
<g clip-path="url(#c2_1)">
<g fill="#B42B17" >
<use xlink:href="#f2_3" transform="matrix(28,0,0,35.9,490.9,353.1)" />
<use xlink:href="#f2_d" transform="matrix(28,0,0,35.9,512.3,353.1)" />
<use xlink:href="#f2_d" transform="matrix(28,0,0,35.9,535.2,353.1)" />
<use xlink:href="#f2_a" transform="matrix(28,0,0,35.9,558.2,353.1)" />
<use xlink:href="#f2_j" transform="matrix(28,0,0,35.9,567.3,353.1)" />
<use xlink:href="#f2_9" transform="matrix(28,0,0,35.9,588.7,353.1)" />
<use xlink:href="#f2_b" transform="matrix(28,0,0,35.9,597.9,353.1)" />
<use xlink:href="#f2_8" transform="matrix(28,0,0,35.9,620.8,353.1)" />
<use xlink:href="#f2_5" transform="matrix(28,0,0,35.9,659,353.1)" />
<use xlink:href="#f2_3" transform="matrix(28,0,0,35.9,681.9,353.1)" />
<use xlink:href="#f2_g" transform="matrix(28,0,0,35.9,703.3,353.1)" />
<use xlink:href="#f2_3" transform="matrix(28,0,0,35.9,714,353.1)" />
<use xlink:href="#f2_f" transform="matrix(28,0,0,35.9,747.6,353.1)" />
<use xlink:href="#f2_4" transform="matrix(28,0,0,35.9,769,353.1)" />
<use xlink:href="#f2_9" transform="matrix(28,0,0,35.9,790.4,353.1)" />
<use xlink:href="#f2_6" transform="matrix(28,0,0,35.9,799.6,353.1)" />
<use xlink:href="#f2_b" transform="matrix(28,0,0,35.9,821,353.1)" />
<use xlink:href="#f2_4" transform="matrix(28,0,0,35.9,843.9,353.1)" />
<use xlink:href="#f2_6" transform="matrix(28,0,0,35.9,865.3,353.1)" />
<use xlink:href="#f2_7" transform="matrix(28,0,0,35.9,897.4,353.1)" />
<use xlink:href="#f2_c" transform="matrix(28,0,0,35.9,908.1,353.1)" />
<use xlink:href="#f2_e" transform="matrix(28,0,0,35.9,931,353.1)" />
<use xlink:href="#f2_5" transform="matrix(28,0,0,35.9,957,353.1)" />
<use xlink:href="#f2_9" transform="matrix(28,0,0,35.9,979.9,353.1)" />
<use xlink:href="#f2_f" transform="matrix(28,0,0,35.9,989,353.1)" />
<use xlink:href="#f2_4" transform="matrix(28,0,0,35.9,1010.4,353.1)" />
<use xlink:href="#f2_c" transform="matrix(28,0,0,35.9,1031.8,353.1)" />
<use xlink:href="#f2_i" transform="matrix(28,0,0,35.9,1054.7,353.1)" />
<use xlink:href="#f2_6" transform="matrix(28,0,0,35.9,1076.1,353.1)" />
<use xlink:href="#f2_e" transform="matrix(28,0,0,35.9,1097.5,353.1)" />
<use xlink:href="#f2_j" transform="matrix(28,0,0,35.9,1111.3,353.1)" />
<use xlink:href="#f2_9" transform="matrix(28,0,0,35.9,1146.4,353.1)" />
<use xlink:href="#f2_b" transform="matrix(28,0,0,35.9,1155.5,353.1)" />
<use xlink:href="#f2_3" transform="matrix(28,0,0,35.9,1189.1,353.1)" />
<use xlink:href="#f2_8" transform="matrix(28,0,0,35.9,1210.5,353.1)" />
<use xlink:href="#f2_e" transform="matrix(28,0,0,35.9,1233.5,353.1)" />
<use xlink:href="#f2_9" transform="matrix(28,0,0,35.9,1247.2,353.1)" />
<use xlink:href="#f2_4" transform="matrix(28,0,0,35.9,1256.4,353.1)" />
<use xlink:href="#f2_h" transform="matrix(28,0,0,35.9,1277.7,353.1)" />
<use xlink:href="#f2_a" transform="matrix(28,0,0,35.9,1300.7,353.1)" />
<use xlink:href="#f2_g" transform="matrix(28,0,0,35.9,1309.8,353.1)" />
<use xlink:href="#f2_h" transform="matrix(28,0,0,35.9,1320.5,353.1)" />
<use xlink:href="#f2_e" transform="matrix(28,0,0,35.9,1343.4,353.1)" />
<use xlink:href="#f2_6" transform="matrix(28,0,0,35.9,1357.2,353.1)" />
</g>
</g>
<text 
transform="matrix(0.78, 0, 0, 1, 490, 353)"
dx="0,-3.1,-4.1,-4.1,-3.5,-3.1,-3.5,-4.1,-4.1,4.3,-4.1,-3.1,-4.6,-3.1,0.4,-3.1,-3.1,-3.5,-3.1,-4.1,-3.1,-3.1,-1.5,-4.6,-4.1,-3.7,0.4,-4.1,-3.5,-3.1,-3.1,-4.1,-3.1,-3.1,-3.7,-3.1,2.4,-3.5,-4.1,-1.5,-3.1,-4.1,-3.7,-3.5,-3.1,-4.1,-3.5,-4.6,-4.1,-3.7" 
class="s3_1"
>applying data science for discovery in agriculture</text>


<defs>
	<path d="M446.1,168.1c0,0,76.4,0,129.9,59.5c0,0,53.4,61.2,53.4,178.8c0,0,0,123.7,-50.4,183.3c0,0,-51.9,59.6,-129.8,59.6c0,0,-74.9,0,-123.8,-58c0,0,-48.9,-59.6,-48.9,-178.8c0,0,0,-126.8,48.9,-184.9c0,0,48.9,-59.5,120.7,-59.5Zm12.2,-488.8c0,0,-201.6,0,-285.7,68.7c0,0,-84,68.8,-84,175.7c0,0,0,10.7,1.5,24.5L328.5,-80.9c0,0,6.1,-41.2,27.5,-56.5c0,0,30.5,-22.9,94.7,-22.9c0,0,82.5,0,122.2,24.4c0,0,29,16.8,42.8,53.5c0,0,9.2,26,9.2,94.6l0,114.6C624.9,126.8,531.7,0,388.1,0c0,0,-160.5,0,-253.7,134.4c0,0,-71.8,107,-71.8,265.9c0,0,0,198.6,94.8,304c0,0,96.2,105.4,238.3,105.4c0,0,146.7,0,242.9,-129.8l0,111.5l195.6,0L834.2,81c0,0,0,-139,-22.9,-207.7c0,0,-23,-70.3,-64.2,-110c0,0,-42.8,-39.7,-111.5,-61.1c0,0,-70.3,-22.9,-177.3,-22.9Z" 
	id="f0_2"
	transform="scale(0.001,-0.001)" />

	<path d="M99.3,0l0,791.4l195.6,0l0,-113.1c0,0,50.4,81,90.1,105.5c0,0,39.7,25.9,90.1,25.9c0,0,71.8,0,137.5,-39.7L548.5,586.7c0,0,-53.5,35.1,-99.3,35.1c0,0,-42.8,0,-73.4,-24.4c0,0,-30.5,-24.5,-47.3,-87.1c0,0,-18.4,-64.2,-18.4,-265.9L310.1,0Z" 
	id="f0_7"
	transform="scale(0.001,-0.001)" />

	<path d="M469,152.8c0,0,82.5,0,137.5,62.6c0,0,56.6,62.7,56.6,181.8c0,0,0,116.1,-55,178.8c0,0,-56.6,62.6,-139.1,62.6c0,0,-82.5,0,-137.5,-62.6c0,0,-56.5,-62.7,-56.5,-180.3c0,0,0,-117.6,55,-180.3c0,0,56.5,-62.6,139,-62.6Zm1.6,-169.5c0,0,-110,0,-207.8,47.3c0,0,-99.3,48.8,-149.7,143.6c0,0,-52,96.2,-52,232.2c0,0,0,103.9,50.4,201.7c0,0,52,97.7,145.2,149.7c0,0,94.7,51.9,212.3,51.9c0,0,178.8,0,293.4,-116.1c0,0,116.1,-117.6,116.1,-296.4c0,0,0,-178.7,-116.1,-296.4c0,0,-116.1,-117.5,-291.8,-117.5Z" 
	id="f0_6"
	transform="scale(0.001,-0.001)" />

	<path d="M106.9,0l0,791.4l195.6,0l0,-116.1c0,0,103.9,134.4,261.3,134.4c0,0,68.7,0,125.2,-24.4c0,0,58.1,-26,87.1,-64.2c0,0,30.6,-39.7,41.3,-88.6c0,0,12.2,-48.9,12.2,-140.6L829.6,0L620.3,0l0,403.3c0,0,0,128.4,-13.8,165c0,0,-13.7,38.2,-42.7,59.6c0,0,-30.6,21.4,-73.4,21.4c0,0,-55,0,-97.8,-29c0,0,-42.7,-30.6,-58,-79.5c0,0,-16.8,-50.4,-16.8,-183.3L317.8,0Z" 
	id="f0_5"
	transform="scale(0.001,-0.001)" />

	<path d="M93.2,0l0,791.4l192.5,0l0,-108.5c0,0,103.9,126.8,247.5,126.8c0,0,76.4,0,131.4,-30.5c0,0,56.5,-32.1,93.2,-96.3c0,0,51.9,64.2,111.5,94.7c0,0,61.1,32.1,129.9,32.1c0,0,87.1,0,146.6,-35.1c0,0,61.1,-36.7,91.7,-105.4c0,0,21.4,-50.4,21.4,-163.5L1258.9,0L1049.6,0l0,452.2c0,0,0,117.7,-22.9,151.3c0,0,-29.1,45.8,-88.6,45.8c0,0,-44.3,0,-82.5,-26c0,0,-39.8,-27.5,-56.6,-79.4c0,0,-16.8,-52,-16.8,-163.5L782.2,0L571.4,0l0,433.9c0,0,0,114.6,-10.7,148.2c0,0,-10.7,33.6,-33.6,50.4c0,0,-24.5,16.8,-64.2,16.8c0,0,-48.9,0,-87.1,-26c0,0,-39.7,-25.9,-56.5,-74.8c0,0,-16.8,-50.4,-16.8,-165L302.5,0Z" 
	id="f0_4"
	transform="scale(0.001,-0.001)" />

	<path d="M108,0l0,791l209,0L317,0Zm0,898l0,194l209,0l0,-194Z" 
	id="f0_3"
	transform="scale(0.001,-0.001)" />

	<path d="M414,-16.7c0,0,-160.4,0,-255.1,64.1c0,0,-94.7,65.7,-123.8,177.2L246,256.7c0,0,12.2,-61.1,53.4,-91.7c0,0,41.3,-32.1,114.6,-32.1c0,0,82.5,0,123.8,29c0,0,27.5,21.4,27.5,56.6c0,0,0,24.4,-15.3,39.7c0,0,-15.3,15.3,-70.3,27.5c0,0,-253.6,56.5,-320.8,102.4c0,0,-94.7,64.1,-94.7,178.7c0,0,0,102.4,80.9,172.6c0,0,81,70.3,252.1,70.3c0,0,163.5,0,241.4,-53.4c0,0,79.5,-53.5,110,-155.9L550,563.8c0,0,-12.2,45.8,-47.4,70.2c0,0,-35.1,24.5,-100.8,24.5c0,0,-84,0,-119.2,-22.9c0,0,-24.4,-16.8,-24.4,-42.8c0,0,0,-21.4,21.4,-38.2c0,0,29,-19.9,195.5,-58.1c0,0,168.1,-38.2,233.8,-93.2c0,0,65.7,-56.5,65.7,-155.8c0,0,0,-110,-90.2,-186.4c0,0,-91.6,-77.8,-270.4,-77.8Z" 
	id="f0_8"
	transform="scale(0.001,-0.001)" />

	<path d="M323.9,-16.7c0,0,-56.5,0,-102.4,18.2c0,0,-45.8,18.4,-67.2,47.4c0,0,-21.4,30.5,-29,82.5c0,0,-6.1,36.7,-6.1,148.2l0,345.3l-96.3,0l0,166.5l96.3,0l0,157.4L328.5,1071l0,-279.6l143.6,0l0,-166.5l-143.6,0l0,-319.3c0,0,0,-97.8,4.6,-113.1c0,0,4.5,-16.8,18.3,-26c0,0,15.3,-10.7,35.1,-10.7c0,0,29.1,0,85.6,19.9L488.9,12.2c0,0,-73.3,-28.9,-165,-28.9Z" 
	id="f0_9"
	transform="scale(0.001,-0.001)" />

	<path d="M256.7,0L6.1,791.4l203.2,0L357.5,271.9L495,791.4l201.7,0L828.1,271.9L980.8,791.4l206.3,0L931.9,0L731.8,0L594.3,508.8L459.9,0Z" 
	id="f1_6"
	transform="scale(0.001,-0.001)" />

	<path d="M579,462.9c0,0,-1.5,91.7,-45.8,139c0,0,-45.8,47.4,-110,47.4c0,0,-68.8,0,-113.1,-50.4c0,0,-44.3,-50.4,-44.3,-136ZM432.4,-16.7c0,0,-207.8,0,-305.6,132.8c0,0,-79.4,108.5,-79.4,273.5c0,0,0,197.1,102.3,308.6c0,0,103.9,111.5,261.3,111.5c0,0,177.2,0,279.6,-116.1c0,0,102.3,-117.6,97.7,-359l-525.5,0c0,0,1.5,-93.2,50.4,-145.2c0,0,48.9,-51.9,120.7,-51.9c0,0,48.9,0,82.5,26c0,0,33.6,27.5,51.9,88.6L776.1,216.9c0,0,-39.7,-116.1,-126.8,-174.1c0,0,-87.1,-59.5,-216.9,-59.5Z" 
	id="f1_4"
	transform="scale(0.001,-0.001)" />

	<path d="M380.4,128.3c0,0,56.5,0,107,38.2c0,0,38.2,27.5,50.4,68.8c0,0,7.6,27.5,7.6,102.3l0,42.8c0,0,-39.7,-13.7,-126.8,-32.1c0,0,-87.1,-19.8,-114.6,-36.6c0,0,-41.2,-29.1,-41.2,-74.9c0,0,0,-44.3,32.1,-76.4c0,0,33.6,-32.1,85.5,-32.1Zm-62.6,-145c0,0,-123.8,0,-194,65.6c0,0,-70.3,65.7,-70.3,166.5c0,0,0,67.2,32.1,119.2c0,0,32,53.5,90.1,81c0,0,58.1,29,166.5,48.8c0,0,146.7,27.5,203.2,52l0,21.4c0,0,0,59.6,-29,85.5c0,0,-30.6,26,-113.1,26c0,0,-55,0,-85.5,-21.4c0,0,-32.1,-22.9,-52,-77.9L74.9,583.6c0,0,32,116.1,110,171.1c0,0,79.4,55,233.7,55c0,0,140.6,0,209.3,-33.6c0,0,68.8,-33.6,96.3,-84c0,0,27.5,-52,27.5,-187.9L750.1,259.7c0,0,0,-103.9,9.2,-152.8c0,0,10.7,-50.4,38.2,-106.9L589.7,0c0,0,-7.6,19.9,-19.8,61.1c0,0,-4.6,18.3,-7.7,24.5c0,0,-53.4,-52,-114.6,-76.4c0,0,-61.1,-25.9,-129.8,-25.9Z" 
	id="f1_3"
	transform="scale(0.001,-0.001)" />

	<path d="M99.3,0l0,791.4l195.6,0l0,-113.1c0,0,50.4,81,90.1,105.5c0,0,39.7,25.9,90.1,25.9c0,0,71.8,0,137.5,-39.7L548.5,586.7c0,0,-53.5,35.1,-99.3,35.1c0,0,-42.8,0,-73.4,-24.4c0,0,-30.5,-24.5,-47.3,-87.1c0,0,-18.4,-64.2,-18.4,-265.9L310.1,0Z" 
	id="f1_5"
	transform="scale(0.001,-0.001)" />

	<path d="M380.4,128.3c0,0,56.5,0,107,38.2c0,0,38.2,27.5,50.4,68.8c0,0,7.6,27.5,7.6,102.3l0,42.8c0,0,-39.7,-13.7,-126.8,-32.1c0,0,-87.1,-19.8,-114.6,-36.6c0,0,-41.2,-29.1,-41.2,-74.9c0,0,0,-44.3,32.1,-76.4c0,0,33.6,-32.1,85.5,-32.1Zm-62.6,-145c0,0,-123.8,0,-194,65.6c0,0,-70.3,65.7,-70.3,166.5c0,0,0,67.2,32.1,119.2c0,0,32,53.5,90.1,81c0,0,58.1,29,166.5,48.8c0,0,146.7,27.5,203.2,52l0,21.4c0,0,0,59.6,-29,85.5c0,0,-30.6,26,-113.1,26c0,0,-55,0,-85.5,-21.4c0,0,-32.1,-22.9,-52,-77.9L74.9,583.6c0,0,32,116.1,110,171.1c0,0,79.4,55,233.7,55c0,0,140.6,0,209.3,-33.6c0,0,68.8,-33.6,96.3,-84c0,0,27.5,-52,27.5,-187.9L750.1,259.7c0,0,0,-103.9,9.2,-152.8c0,0,10.7,-50.4,38.2,-106.9L589.7,0c0,0,-7.6,19.9,-19.8,61.1c0,0,-4.6,18.3,-7.7,24.5c0,0,-53.4,-52,-114.6,-76.4c0,0,-61.1,-25.9,-129.8,-25.9Z" 
	id="f2_3"
	transform="scale(0.001,-0.001)" />

	<path d="M491.9,148.2c0,0,73.4,0,122.3,58.1c0,0,48.9,58,48.9,192.5c0,0,0,123.7,-50.5,183.3c0,0,-50.4,61.1,-123.7,61.1c0,0,-76.4,0,-126.8,-58.1c0,0,-52,-59.5,-52,-175.7c0,0,0,-134.4,52,-197c0,0,53.5,-64.2,129.8,-64.2ZM102.4,-300.9l0,1092.3l195.5,0l0,-116.1c0,0,38.2,59.6,102.4,96.2c0,0,65.7,38.2,145.1,38.2c0,0,137.5,0,233.8,-108.4c0,0,96.2,-108.5,96.2,-301c0,0,0,-198.6,-96.2,-307.1c0,0,-97.8,-109.9,-235.3,-109.9c0,0,-65.7,0,-119.2,24.3c0,0,-53.4,26,-111.5,88.7l0,-397.2Z" 
	id="f2_d"
	transform="scale(0.001,-0.001)" />

	<path d="M108,0l0,1092l209,0L317,0Z" 
	id="f2_a"
	transform="scale(0.001,-0.001)" />

	<path d="M197.1,-320.7c0,0,-59.6,0,-117.7,12.2l-18.3,165c0,0,48.9,-10.7,88.6,-10.7c0,0,71.8,0,107,42.8c0,0,35.1,44.3,55,110L9.2,791.4l223,0L421.7,229.2L606.5,791.4l218.5,0L543.9,29L495,-106.8c0,0,-27.5,-70.3,-51.9,-107c0,0,-26,-36.7,-58.1,-58c0,0,-33.6,-23,-81,-35.2c0,0,-47.3,-13.7,-106.9,-13.7Z" 
	id="f2_j"
	transform="scale(0.001,-0.001)" />

	<path d="M108,0l0,791l209,0L317,0Zm0,898l0,194l209,0l0,-194Z" 
	id="f2_9"
	transform="scale(0.001,-0.001)" />

	<path d="M106.9,0l0,791.4l195.6,0l0,-116.1c0,0,103.9,134.4,261.3,134.4c0,0,68.7,0,125.2,-24.4c0,0,58.1,-26,87.1,-64.2c0,0,30.6,-39.7,41.3,-88.6c0,0,12.2,-48.9,12.2,-140.6L829.6,0L620.3,0l0,403.3c0,0,0,128.4,-13.8,165c0,0,-13.7,38.2,-42.7,59.6c0,0,-30.6,21.4,-73.4,21.4c0,0,-55,0,-97.8,-29c0,0,-42.7,-30.6,-58,-79.5c0,0,-16.8,-50.4,-16.8,-183.3L317.8,0Z" 
	id="f2_b"
	transform="scale(0.001,-0.001)" />

	<path d="M446.1,168.1c0,0,76.4,0,129.9,59.5c0,0,53.4,61.2,53.4,178.8c0,0,0,123.7,-50.4,183.3c0,0,-51.9,59.6,-129.8,59.6c0,0,-74.9,0,-123.8,-58c0,0,-48.9,-59.6,-48.9,-178.8c0,0,0,-126.8,48.9,-184.9c0,0,48.9,-59.5,120.7,-59.5Zm12.2,-488.8c0,0,-201.6,0,-285.7,68.7c0,0,-84,68.8,-84,175.7c0,0,0,10.7,1.5,24.5L328.5,-80.9c0,0,6.1,-41.2,27.5,-56.5c0,0,30.5,-22.9,94.7,-22.9c0,0,82.5,0,122.2,24.4c0,0,29,16.8,42.8,53.5c0,0,9.2,26,9.2,94.6l0,114.6C624.9,126.8,531.7,0,388.1,0c0,0,-160.5,0,-253.7,134.4c0,0,-71.8,107,-71.8,265.9c0,0,0,198.6,94.8,304c0,0,96.2,105.4,238.3,105.4c0,0,146.7,0,242.9,-129.8l0,111.5l195.6,0L834.2,81c0,0,0,-139,-22.9,-207.7c0,0,-23,-70.3,-64.2,-110c0,0,-42.8,-39.7,-111.5,-61.1c0,0,-70.3,-22.9,-177.3,-22.9Z" 
	id="f2_8"
	transform="scale(0.001,-0.001)" />

	<path d="M452.2,146.7c0,0,73.4,0,123.8,61.1c0,0,50.4,62.6,50.4,184.8c0,0,0,136,-48.9,195.6c0,0,-48.9,61.1,-126.8,61.1c0,0,-73.3,0,-123.8,-59.6c0,0,-50.4,-59.6,-50.4,-177.2c0,0,0,-126.8,35.2,-183.3c0,0,50.4,-82.5,140.5,-82.5ZM392.6,-16.7c0,0,-135.9,0,-232.2,108.4c0,0,-97.8,110,-97.8,307.1c0,0,0,201.6,94.8,305.5c0,0,94.7,105.4,238.3,105.4c0,0,132.9,0,230.7,-110l0,392.7l209.3,0L835.7,0L640.1,0l0,116.1c0,0,-47.3,-68.7,-113,-100.8c0,0,-67.2,-32,-134.5,-32Z" 
	id="f2_5"
	transform="scale(0.001,-0.001)" />

	<path d="M323.9,-16.7c0,0,-56.5,0,-102.4,18.2c0,0,-45.8,18.4,-67.2,47.4c0,0,-21.4,30.5,-29,82.5c0,0,-6.1,36.7,-6.1,148.2l0,345.3l-96.3,0l0,166.5l96.3,0l0,157.4L328.5,1071l0,-279.6l143.6,0l0,-166.5l-143.6,0l0,-319.3c0,0,0,-97.8,4.6,-113.1c0,0,4.5,-16.8,18.3,-26c0,0,15.3,-10.7,35.1,-10.7c0,0,29.1,0,85.6,19.9L488.9,12.2c0,0,-73.3,-28.9,-165,-28.9Z" 
	id="f2_g"
	transform="scale(0.001,-0.001)" />

	<path d="M414,-16.7c0,0,-160.4,0,-255.1,64.1c0,0,-94.7,65.7,-123.8,177.2L246,256.7c0,0,12.2,-61.1,53.4,-91.7c0,0,41.3,-32.1,114.6,-32.1c0,0,82.5,0,123.8,29c0,0,27.5,21.4,27.5,56.6c0,0,0,24.4,-15.3,39.7c0,0,-15.3,15.3,-70.3,27.5c0,0,-253.6,56.5,-320.8,102.4c0,0,-94.7,64.1,-94.7,178.7c0,0,0,102.4,80.9,172.6c0,0,81,70.3,252.1,70.3c0,0,163.5,0,241.4,-53.4c0,0,79.5,-53.5,110,-155.9L550,563.8c0,0,-12.2,45.8,-47.4,70.2c0,0,-35.1,24.5,-100.8,24.5c0,0,-84,0,-119.2,-22.9c0,0,-24.4,-16.8,-24.4,-42.8c0,0,0,-21.4,21.4,-38.2c0,0,29,-19.9,195.5,-58.1c0,0,168.1,-38.2,233.8,-93.2c0,0,65.7,-56.5,65.7,-155.8c0,0,0,-110,-90.2,-186.4c0,0,-91.6,-77.8,-270.4,-77.8Z" 
	id="f2_f"
	transform="scale(0.001,-0.001)" />

	<path d="M443.1,-16.7c0,0,-174.2,0,-276.6,108.4c0,0,-103.9,108.4,-103.9,302.5c0,0,0,197.1,103.9,305.5c0,0,103.9,110,279.6,110c0,0,145.2,0,230.7,-62.6c0,0,85.6,-62.7,122.2,-189.5L592.8,519.4c0,0,-10.7,62.7,-47.4,93.2c0,0,-36.6,32.1,-96.2,32.1c0,0,-77.9,0,-123.8,-53.4c0,0,-47.3,-55,-47.3,-181.9c0,0,0,-140.5,47.3,-198.6c0,0,47.4,-58,126.8,-58c0,0,59.6,0,97.8,33.6c0,0,38.2,33.6,53.5,116.1L809.7,267.4c0,0,-32.1,-140.6,-122.2,-212.4c0,0,-91.7,-71.7,-244.4,-71.7Z" 
	id="f2_4"
	transform="scale(0.001,-0.001)" />

	<path d="M579,462.9c0,0,-1.5,91.7,-45.8,139c0,0,-45.8,47.4,-110,47.4c0,0,-68.8,0,-113.1,-50.4c0,0,-44.3,-50.4,-44.3,-136ZM432.4,-16.7c0,0,-207.8,0,-305.6,132.8c0,0,-79.4,108.5,-79.4,273.5c0,0,0,197.1,102.3,308.6c0,0,103.9,111.5,261.3,111.5c0,0,177.2,0,279.6,-116.1c0,0,102.3,-117.6,97.7,-359l-525.5,0c0,0,1.5,-93.2,50.4,-145.2c0,0,48.9,-51.9,120.7,-51.9c0,0,48.9,0,82.5,26c0,0,33.6,27.5,51.9,88.6L776.1,216.9c0,0,-39.7,-116.1,-126.8,-174.1c0,0,-87.1,-59.5,-216.9,-59.5Z" 
	id="f2_6"
	transform="scale(0.001,-0.001)" />

	<path d="M132.9,0l0,626.4l-116.1,0l0,165l116.1,0l0,59.6c0,0,0,100.8,21.4,149.7c0,0,21.4,48.9,77.9,79.4c0,0,58.1,32.1,145.2,32.1c0,0,90.1,0,175.7,-27.5L524,938.1c0,0,-48.9,12.2,-96.2,12.2c0,0,-45.9,0,-64.2,-21.4c0,0,-19.8,-21.4,-19.8,-81l0,-56.5l155.8,0l0,-165l-155.8,0L343.8,0Z" 
	id="f2_7"
	transform="scale(0.001,-0.001)" />

	<path d="M469,152.8c0,0,82.5,0,137.5,62.6c0,0,56.6,62.7,56.6,181.8c0,0,0,116.1,-55,178.8c0,0,-56.6,62.6,-139.1,62.6c0,0,-82.5,0,-137.5,-62.6c0,0,-56.5,-62.7,-56.5,-180.3c0,0,0,-117.6,55,-180.3c0,0,56.5,-62.6,139,-62.6Zm1.6,-169.5c0,0,-110,0,-207.8,47.3c0,0,-99.3,48.8,-149.7,143.6c0,0,-52,96.2,-52,232.2c0,0,0,103.9,50.4,201.7c0,0,52,97.7,145.2,149.7c0,0,94.7,51.9,212.3,51.9c0,0,178.8,0,293.4,-116.1c0,0,116.1,-117.6,116.1,-296.4c0,0,0,-178.7,-116.1,-296.4c0,0,-116.1,-117.5,-291.8,-117.5Z" 
	id="f2_c"
	transform="scale(0.001,-0.001)" />

	<path d="M99.3,0l0,791.4l195.6,0l0,-113.1c0,0,50.4,81,90.1,105.5c0,0,39.7,25.9,90.1,25.9c0,0,71.8,0,137.5,-39.7L548.5,586.7c0,0,-53.5,35.1,-99.3,35.1c0,0,-42.8,0,-73.4,-24.4c0,0,-30.5,-24.5,-47.3,-87.1c0,0,-18.4,-64.2,-18.4,-265.9L310.1,0Z" 
	id="f2_e"
	transform="scale(0.001,-0.001)" />

	<path d="M326.9,0L7.6,791.4l220,0L377.4,386.5L420.1,252.1c0,0,16.8,51.9,21.4,67.2c0,0,10.7,33.6,22.9,67.2L614.2,791.4l215.4,0L514.9,0Z" 
	id="f2_i"
	transform="scale(0.001,-0.001)" />

	<path d="M368.2,-16.7c0,0,-81,0,-143.6,33.5c0,0,-64.2,35.1,-91.7,97.8c0,0,-29,64.2,-29,175.7l0,501.1l210.8,0l0,-363.6c0,0,0,-168.1,10.7,-204.7c0,0,12.2,-38.2,42.8,-59.6c0,0,30.6,-22.9,76.4,-22.9c0,0,55,0,96.2,29c0,0,42.8,30.5,58.1,73.3c0,0,16.8,44.3,16.8,213.9l0,334.6l209.3,0L825,0L631,0l0,117.6c0,0,-44.3,-62.6,-114.6,-97.7c0,0,-70.3,-36.6,-148.2,-36.6Z" 
	id="f2_h"
	transform="scale(0.001,-0.001)" />


</defs>

<!-- Any embedded fonts defined here -->
<style type="text/css" ><![CDATA[

@font-face {
	font-family: Arial-BoldMT_9;
	src: url("fonts/Arial-BoldMT_9.woff") format("woff");
}

@font-face {
	font-family: Arial-BoldMT_b;
	src: url("fonts/Arial-BoldMT_b.woff") format("woff");
}

@font-face {
	font-family: Arial-BoldMT_f;
	src: url("fonts/Arial-BoldMT_f.woff") format("woff");
}

]]></style>

</svg>
